# xmcd
#
# Track frame offsets: 
#        150
#        10089
#        27932
#        40720
#        52861
#        63158
#        75433
#        87123
#        110211
#        120777
#        130529
#
# Disc length: 1944 seconds
#
# Revision: 0
# Processed by: cddbd v1.5.2PL0 Copyright (c) Steve Scherf et al.
# Submitted via: ExactAudioCopy v1.0b1
#
DISCID=7107960b
DTITLE=Various Artist - Keep On Truckin', K-Tel Presents
DYEAR=2006
DGENRE=Country
TTITLE0=Dave Dudley - Truck Drivin' Son of a Gun
TTITLE1=Ferlin Husky - Convoy
TTITLE2=Red Simpson - Roll, Truck , Roll
TTITLE3=Del Reeves - Girl on the Billboard
TTITLE4=Jack Reno - Hitchin' a Ride
TTITLE5=Red Steagall - Truck Drivin' Man
TTITLE6=The Willis Brothers - Give Me 40 Acres to Turn This Rig Around
TTITLE7=Ferlin Husky - Teddy Bear
TTITLE8=Dave Dudley - Six Days on the Road
TTITLE9=Mel McDaniel - Let it Roll (Let it Rock)
TTITLE10=Ferlin Husky - Phantom 309
EXTD=
EXTT0=
EXTT1=
EXTT2=
EXTT3=
EXTT4=
EXTT5=
EXTT6=
EXTT7=
EXTT8=
EXTT9=
EXTT10=
PLAYORDER=
